# xmcd
# 
# Track frame offsets:
#     150
#     46290
#     77212
#     145940
#     176122
# 
# Disc length: 2514
# 
# Revision: 10
# Processed by: cddbd v1.5.2PL0 Copyright (c) Steve Scherf et al.
# Submitted via: fre:ac v1.0.17
# 
DISCID=4009d005
DTITLE=Cream - Live Cream
DYEAR=1968
DGENRE=Progressive Rock
TTITLE0=N.S.U.
TTITLE1=Sleepy Time Time 
TTITLE2=Sweet Wine 
TTITLE3=Rollin' And Tumblin' 
TTITLE4=Lawdy Mama
EXTD=
EXTT0=
EXTT1=
EXTT2=
EXTT3=
EXTT4=
PLAYORDER=
